<svg version="1.0" xmlns="http://www.w3.org/2000/svg" width="300" height="300" viewBox="0 0 283 300" preserveAspectRatio="xMidYMid" class="svg" style="width:256px;height:256px"><path d="M120.8 5.5C112.7 11 110.3 18.3 108 44c-1.1 11.3-2.4 23.4-3.1 27-2.9 16.4-10.9 29.8-24.3 40.8-15.4 12.6-21.4 26.3-17.1 39.2 2.1 6.2 1.3 7.3-4 5.9-8.1-2.3-20.3.7-27.3 6.6-7.3 6.2-9.3 16.3-4.7 24.3 1.7 2.9 2.1 4.4 1.2 4.6-26.4 7.5-34.3 27.3-17.1 42.5 4.1 3.6 15.1 9.7 20.5 11.4 1.4.5 1.6 1.6 1.2 7-.5 5.4-.2 7.1 1.6 10.4 3.3 5.8 8.1 8.6 15.5 9.1 10.7.7 19.1-3.6 48.1-24.3 17.8-12.7 30.5-21.4 34.2-23.4 2.2-1.1 2.2-1.1-.2 2.5-2.9 4.3-4 7.7-3.1 9.9.9 2.6 2.4 1.7 6.6-4.1 4.7-6.3 13.7-13.3 20.7-16 2.6-1.1 7.7-3.4 11.3-5.3 3.6-1.8 9.2-4.7 12.5-6.3 3.3-1.7 7.4-4.6 9-6.4 1.8-2 7.7-5.7 15-9.3 21.2-10.5 46.1-27.1 65.8-43.9 4.8-4.1 8.7-8.1 8.7-8.8 0-.9-1.1-1.4-2.9-1.4-2.3 0-4.2 1.5-9.5 7.4-11.2 12.5-37.6 31.3-64.8 46-10.9 5.9-12.3 4.7-4-3.8 14.8-15 38.5-48.2 51.6-72.1 6.9-12.6 7.8-15.5 4.8-15.5-2.9 0-4.7 2.8-7.8 11.4-5.9 16.8-32.4 56.4-51.4 76.6l-4.2 4.5 3.5-4.5c25.1-33 40.7-80.8 40.7-124.9 0-22.2-5.1-35.1-13.7-35.1-7.9 0-14.5 6.7-24.9 25.5-8.3 15-14.2 24.5-15.2 24.5-.4 0-1.8-3.3-3-7.3-3.2-9.7-15.8-35.6-21.7-44.2-12.8-18.9-25.7-25.8-35.7-19zm5.9 6.1c-.9.9-2.8-.6-2.1-1.8.4-.6 1-.6 1.7.1.6.6.8 1.3.4 1.7zm11.6 3.1c2 1.9 2.3 8.3.5 10.1-4.7 4.7-13.1-4.7-9.3-10.4 1.3-2.1 2.2-2.4 4.3-1.9 1.5.4 3.5 1.4 4.5 2.2zm-15.5.4c-.2.6-.8 1-1.3 1s-1.1-.4-1.3-1c-.2-.6.4-1.1 1.3-1.1s1.5.5 1.3 1.1zm1.6 6.5c2 .8 2.1 4.3.1 5-2 .8-4.5-1.3-4.5-3.7 0-1.9 1.6-2.4 4.4-1.3zm6.4 8.6c1.4 1.4 1.6 4.4.3 5.2-1.5.9-4-.4-4.6-2.5-1.1-3.5 1.7-5.3 4.3-2.7zm19.6 3.1c11.6 12.1 26.8 53 32 86.3 2.1 13.1 2.1 39 .1 50.4-1.5 8.5-6 23.6-7.4 24.4-.3.2-.1-4.4.5-10.2 1.7-15.2 2.7-40.2 1.7-40.2-.5 0-1.4 6.4-2.1 14.2-1.8 20.1-3 24.2-3.1 10.7-.1-12.8-3-53.1-3.8-53.9-.3-.3-.4 8.7-.1 20 .3 11.3.2 26.3-.1 33.5-.7 14.6-.1 15.2-5.7-5-3.9-14-9.5-31.7-9.9-31.3-.2.2 1.1 6.4 3 13.8s4.3 18.7 5.5 25c1.1 6.3 2.3 12.6 2.6 14 .3 1.4-2.6-2.7-6.3-9-7.5-12.6-19.7-30.8-23.9-35.5l-2.6-3 1.8 3c10.9 18.2 14.4 24.4 18.5 33 2.6 5.5 5.7 12.5 6.9 15.5l2.1 5.5-9.2-10c-12.6-13.5-32.7-33.7-30-30 1.3 1.6 9.8 11.3 18.9 21.4 21.1 23.4 20.5 22.6 14.5 19.9-4.6-1.9-13.7-7.8-32-20.6-4.5-3.1-11.5-7.8-15.6-10.4-9.2-5.8-12.9-10.8-13.5-18.4-.3-3.7.1-6.9 1.3-10.1 2.2-5.8 8-12.3 10.9-12.3 2.2 0 5.7 3.2 8.9 8 2.7 3.9 1.9 1-.9-4-4.2-7.1-3.4-14.9 1.9-20.8 4.8-5.2 9.4-1.9 16.4 11.7 2.7 5.4 3.3 5.9 2.7 3.1-.3-1.9-2.1-7.6-3.9-12.5-1.8-5-3.5-10.8-3.9-13-.7-4.3 1.3-16.6 4-24.8 4.6-13.9 14.5-7.1 21 14.3 3.7 12.3 4.3 13.3 4.3 8.4.2-10.7-4.4-26.9-13.3-46-6.3-13.9-6.1-19.4.8-19.4 2.2 0 4 1.1 7 4.3zM119 31.6c0 .9-.5 1.4-1.2 1.2-1.8-.6-2.1-2.8-.4-2.8.9 0 1.6.7 1.6 1.6zm102 .4c0 .5-.4 1-1 1-.5 0-1-.5-1-1 0-.6.5-1 1-1 .6 0 1 .4 1 1zm-5 2c0 .5-.2 1-.4 1-.3 0-.8-.5-1.1-1-.3-.6-.1-1 .4-1 .6 0 1.1.4 1.1 1zm-92 3.1c0 .5-.7.9-1.5.9s-1.5-.7-1.5-1.5c0-.9.6-1.2 1.5-.9.8.4 1.5 1 1.5 1.5zm100.8-.9c3.1 3.1-.4 11.9-4.2 10.5-2.3-.9-3-6.4-1.2-9.2 1.8-2.7 3.6-3.1 5.4-1.3zm-10 5.1c-.2 1.1-.9 2.2-1.5 2.5-1.6.4-2.7-2.2-1.9-4.3.8-2.2 3.8-.6 3.4 1.8zm-93 2.5c.3 2 0 2.3-2.5 2-2-.2-2.9-.9-3.1-2.6-.3-2 0-2.3 2.5-2 2 .2 2.9.9 3.1 2.6zm11.5 1.3c.5.9.7 2.8.3 4.3-.5 2.1-1.2 2.7-2.9 2.4-2.6-.4-5.3-4.8-4.4-7.2.9-2.2 5.6-1.8 7 .5zM208 45c0 .5-.4 1-1 1-.5 0-1-.5-1-1 0-.6.5-1 1-1 .6 0 1 .4 1 1zm8 3.9c0 1-.6 2.4-1.4 3-1.1 1-1.6.8-2.1-.8-.3-1.2-.3-2.5 0-3.1 1.1-1.7 3.5-1.1 3.5.9zm-95.3 3.7c-.9.9-2.8-.6-2.1-1.8.4-.6 1-.6 1.7.1.6.6.8 1.3.4 1.7zM209 51c0 .5-.4 1-1 1-.5 0-1-.5-1-1 0-.6.5-1 1-1 .6 0 1 .4 1 1zm16.6 1.1c4.2 4.6 2.6 33.7-3.2 59.9-6.7 29.9-19.3 57.3-32.8 71.5-2.7 2.7-4.2 3.9-3.4 2.5 10.7-18.2 19.7-36 18.4-36-.2 0-3.6 5.6-7.5 12.5-4 6.9-7.4 12.5-7.6 12.5-.2 0 1.1-3.3 2.9-7.3 5.1-11.2 15.8-37.9 15.3-38.3-.2-.2-2.9 5.3-6.1 12.3-3.1 7.1-7 15.3-8.6 18.3l-2.9 5.5V162c-.1-4 1.4-19.1 2.3-23.5.5-2.2.4-2.4-.2-1-.6 1.4-1.1-.7-1.6-7-.3-5-1.1-13.1-1.7-18.2-1.3-10.6-.3-14.9 5.2-23C198.6 82.8 205 76 206.6 76c3.8 0 4.8 11.5 2.1 24.2-.8 3.8-1.3 6.8-1.1 6.8.2 0 1-1.3 1.8-2.9 3.1-5.8 5.7-18 7.1-32.9 1.4-14.6 2.4-18.8 4.9-20.4 1.7-1.1 2.1-1 4.2 1.3zM205 55c0 1-.5 2.2-1 2.5-1.3.8-2.4-2-1.6-4.1.8-2 2.6-.9 2.6 1.6zm-76.2 1.2c.7.7 1.2 2 1.2 3 0 2.6-4.7 2.4-5.5-.2-1.1-3.5 1.7-5.4 4.3-2.8zM212 61c0 2.2-2.5 4.4-4 3.5-1.4-.8-1.3-4.8.2-6.3s3.8.2 3.8 2.8zm-96.5-1.1c1 1.7-1.2 2.1-2.5.6-1-1.2-1-1.5.3-1.5.9 0 1.8.4 2.2.9zM202 62c0 .5-.4 1-1 1-.5 0-1-.5-1-1 0-.6.5-1 1-1 .6 0 1 .4 1 1zm-77.2 3.2c1.7 1.7 1.5 4.7-.3 5.4-3.9 1.5-8.9-2.5-7-5.6.9-1.4 5.8-1.3 7.3.2zm70.2 1.4c0 .8-.4 1.2-1 .9-.5-.3-1-1-1-1.6 0-.5.5-.9 1-.9.6 0 1 .7 1 1.6zm10.3 1.3c.5 1.9-.9 4.1-2.5 4.1-1 0-1.1-4.4-.1-5.3 1.1-1.2 2.1-.8 2.6 1.2zM116 72.5c1.6 2 .1 3.9-2.6 3.3-2.7-.5-3.2-4.8-.6-4.8 1.1 0 2.5.7 3.2 1.5zm82.9.4c1.4 2.4-.8 5.5-3.2 4.5-2.5-.9-2.3-6.4.3-6.4 1 0 2.4.8 2.9 1.9zm-8.2 2.7c.8 2.2-1.5 4.4-2.6 2.5-1-1.6-.4-4.1 1-4.1.5 0 1.2.7 1.6 1.6zm-67.7.9c1.7 2 .8 5-1.4 5-2.3 0-4.1-2.7-3.3-4.9.8-2 3.1-2.1 4.7-.1zm71 5.9c0 1.4-.5 2.8-1.1 3.2-1.7 1-3.2-1.2-2.4-3.5.9-2.9 3.5-2.7 3.5.3zm-76.5 3.2c4 4.3 3 11.4-1.6 11.4-3.1 0-6.9-3.9-6.9-7.1 0-6.9 4.2-9 8.5-4.3zm69.6 1c1 2.7.4 6.4-1 6.4-.5 0-1.1-1.2-1.4-2.8-.3-1.5-.9-3.5-1.2-4.5-.5-1.2-.2-1.7.9-1.7.9 0 2.1 1.2 2.7 2.6zM106 94c0 .5-.7 1-1.5 1s-1.5-.5-1.5-1c0-.6.7-1 1.5-1s1.5.4 1.5 1zm-4.2 7.3c.2 1.2-.3 1.7-1.7 1.7-1.5 0-2.1-.6-2.1-2.1 0-2.5 3.3-2.2 3.8.4zm10.6-.1c1.8 2.6.5 5.8-2.4 5.8-2.3 0-5.5-4.4-4.6-6.5.8-2.2 5.3-1.8 7 .7zm-15.3 6.3c.1 1.7-1.8 1.7-2.5 0-.4-1.1-.1-1.5 1-1.3.8.2 1.5.7 1.5 1.3zm8.9 5.6c2.4 4.4-1 9.6-4.7 7.3-2.1-1.3-2.7-3.6-1.9-7 .8-3.1 5-3.3 6.6-.3zm-11.1.3c1.7 2-1.3 4.3-3.4 2.6-.8-.7-1.5-1.9-1.5-2.6 0-1.8 3.4-1.8 4.9 0zm-9.4 5c1.6 1.2 1.7 1.6.6 3-1.7 2-5.1.4-5.1-2.4 0-2.3 1.8-2.6 4.5-.6zm8.3 5.8c.4 3.3-2.2 5.6-4.3 3.8-1.9-1.6-1.9-2.9.2-5.2 2.1-2.4 3.7-1.8 4.1 1.4zm-17 5.6c.2.7-.3 1.2-1.2 1.2-.9 0-1.6-.7-1.6-1.6 0-1.7 2.2-1.4 2.8.4zm6.4-.3c0 .5-.5 1.1-1.1 1.3-.6.2-1.1-.4-1.1-1.3s.5-1.5 1.1-1.3c.6.2 1.1.8 1.1 1.3zm6.8 5c0 2.1-2.9 4.5-4.5 3.9-2-.8-1.9-4.1.2-5.2 2-1.2 4.3-.5 4.3 1.3zm-11.5 2.9c2 1.5 1.5 4.6-.8 4.6-2 0-4-2.7-3.3-4.5.7-1.9 1.7-1.9 4.1-.1zm-2.7 9.5c.3.8-.1 1.2-.9.9-.7-.2-1.5-1-1.7-1.7-.3-.8.1-1.2.9-.9.7.2 1.5 1 1.7 1.7zm13 .7c.4 2.9-2.6 3.9-4.9 1.8-3-2.7-2.4-4.6 1.4-4.2 2.4.2 3.3.8 3.5 2.4zM79 155c0 1.3-.7 2-2 2-1.1 0-2-.2-2-.4s-.3-1.1-.6-2c-.5-1.2 0-1.6 2-1.6 1.9 0 2.6.5 2.6 2zm10.4 2.6c.9.3 1.6 1.5 1.6 2.5 0 2.6-4.6 2.6-5.9 0-1.5-2.8.5-4 4.3-2.5zM72 162c0 .5-.2 1-.4 1-.3 0-.8-.5-1.1-1-.3-.6-.1-1 .4-1 .6 0 1.1.4 1.1 1zm-26.2 4.3c.2 1.1-.3 1.7-1.7 1.7-2.3 0-3.5-1.5-2.6-3.1 1-1.5 3.9-.6 4.3 1.4zm8.3-1.3c2.8 1.6 2.5 5-.5 5-2.5 0-4.3-3-3.1-5 .8-1.3 1.2-1.3 3.6 0zm31.4 11.2c8.8 3 19.4 6.9 23.6 8.6 11.9 4.8 34 14.5 33.7 14.8-.2.1-6.2-1.3-13.3-3.2-7.2-1.9-13.4-3.4-14-3.3-.5 0 3.3 1.6 8.5 3.5 5.2 1.8 8.2 3.2 6.5 2.9-4.5-.7-28.3-1-28.9-.4-.3.2 4.9 1.1 11.5 1.7 11.8 1.3 19.5 3 14 3.1-3.3.1-20.3 4.1-22.1 5.3-1 .6.2.7 3.5.4 2.8-.3 9.1-.8 14-1.1l9-.6-11.3 6.1c-6.3 3.4-11.2 6.3-11 6.5.2.2 5.1-1.3 10.8-3.4 15.6-5.7 17.7-5.9 9.5-1-6.9 4.2-12.2 7.9-11.3 7.9.3 0 5.6-2.4 11.9-5.4 12.5-5.8 23.7-10.2 24.4-9.4.3.3-5.7 3.4-13.2 6.9-7.6 3.5-21.2 11-30.3 16.7-23.1 14.5-37.7 21.2-46.2 21.5-7.1.3-12.6-8-9.4-14.1C57 237 61 234.8 75.3 229c4.2-1.8 7.7-3.5 7.7-3.9 0-.5-3.7.3-8.2 1.6-17 5-23 4.2-30.2-3.8-8.6-9.6-8.7-20.2-.2-24.3 4.6-2.2 8.2-2 22.6.9 16.9 3.4 19.5 3.1 8-1-10.7-3.9-16.4-7.5-19.7-12.4-2.8-4.1-2.9-6.6-.4-11.1 2.1-4.1 6.8-6.1 11.5-5 1.7.4 10.3 3.2 19.1 6.2zM36 171.5c0 .8-.7 1.5-1.5 1.5s-1.5-.7-1.5-1.5.7-1.5 1.5-1.5 1.5.7 1.5 1.5zm61.9 2.6c2.8 1.2 5 2.3 4.8 2.5-.3.4-10.9-3.5-11.6-4.2-1.1-1 2.1-.2 6.8 1.7zm-50.5.5c2 .8 2.1 4.3.1 5-2.6 1-6.5-.5-6.5-2.5 0-3 2.5-4 6.4-2.5zM109 179c1.9 1.1 3.1 1.9 2.5 1.9-.5 0-2.6-.8-4.5-1.9-1.9-1.1-3-1.9-2.5-1.9.6 0 2.6.8 4.5 1.9zm-72.1 2.4c.9 1 .8 1.6-.4 2.6-1.3 1.1-1.9 1.1-3.2-.2-1.6-1.7-1-3.8 1.1-3.8.8 0 1.9.6 2.5 1.4zm92.1 8.1c0 .3-3.6-1.3-8-3.5s-8-4.2-8-4.5c0-.3 3.6 1.3 8 3.5s8 4.2 8 4.5zm-80.7-2.3c1.6 2.4-.9 4.8-5 4.8-4.4 0-5.5-2.6-2.3-5.2 2.7-2.2 5.8-2 7.3.4zm-14.9 16.1c.9 1.5.7 2.2-1.3 3.8-4.7 3.9-8.9 1.3-5.6-3.7 1.9-2.9 5.2-2.9 6.9-.1zM21 204c0 .5-.7 1-1.5 1s-1.5-.5-1.5-1c0-.6.7-1 1.5-1s1.5.4 1.5 1zm-9 9.1c0 2.4-2.3 2.1-2.8-.4-.2-1 .3-1.7 1.2-1.7 1 0 1.6.9 1.6 2.1zm11.2.4c.9 2.1.9 2.9-.3 4.1-3 2.9-7.6-1.9-4.9-5.1 1.9-2.2 3.9-1.8 5.2 1zm11.8 4c1.9 2.3.4 4.5-2.9 4.5-3.6 0-4.6-1.3-3.1-4 1.3-2.4 4.2-2.6 6-.5zm-20 6c0 .8-.7 1.5-1.5 1.5s-1.5-.7-1.5-1.5.7-1.5 1.5-1.5 1.5.7 1.5 1.5zm12 3.9c.6.8 1 2.5.8 3.8-.4 3.3-5.2 3.3-5.6 0-.3-2.2 1.3-5.2 2.8-5.2.4 0 1.3.7 2 1.4zm16.2 1.8c1.6 1.3 2.2 2.9 1.9 5.5-.1 1.6-4.5 1.7-7.2.3-2.1-1.2-2.5-4-.7-5.8 1.5-1.5 4-1.5 6 0zM38 239.4c0 1.8-3.9 3.1-5.2 1.8-1.5-1.5 0-3.2 2.8-3.2 1.4 0 2.4.6 2.4 1.4zm10 3.2c0 .9-.7 1.4-1.7 1.2-2.5-.5-2.8-2.8-.4-2.8 1.2 0 2.1.6 2.1 1.6zm-4 6.4c0 .5-.4 1-1 1-.5 0-1-.5-1-1 0-.6.5-1 1-1 .6 0 1 .4 1 1zm10 4.5c0 2.4-3.1 5.1-4.4 3.8-.3-.3-.6-1.9-.6-3.5 0-2.3.4-2.8 2.5-2.8 2 0 2.5.5 2.5 2.5zm-9.6 3.1c2 .8 2.1 4.3.1 5-2 .8-4.5-1.3-4.5-3.7 0-1.9 1.6-2.4 4.4-1.3zm19.4 3.7c.2 1.1-.3 1.7-1.7 1.7-2.3 0-3.5-1.5-2.6-3.1 1-1.5 3.9-.6 4.3 1.4zm-9.9 2.6c1.5 1 .7 3.1-1.2 3.1-2.1 0-4-1.7-3.3-2.9.9-1.3 2.6-1.4 4.5-.2z" class="node" fill="#96588a"/><g fill="#FFF"><path d="M124.6 9.8c-.3.6-.1 1.4.5 1.7 1.5 1 2.5-.3 1.2-1.6-.7-.7-1.3-.7-1.7-.1zM129.5 14.4c-3.8 5.7 4.6 15.1 9.3 10.4.7-.7 1.2-2.8 1.2-4.8 0-4.1-2-6.5-6.2-7.5-2.1-.5-3-.2-4.3 1.9zM120.2 15.1c.2.6.8 1 1.3 1s1.1-.4 1.3-1c.2-.6-.4-1.1-1.3-1.1s-1.5.5-1.3 1.1zM120 22.9c0 2.4 2.5 4.5 4.5 3.7 2-.7 1.9-4.2-.1-5-2.8-1.1-4.4-.6-4.4 1.3zM126.5 30c-.9 1.5.3 4.7 2.1 5.4 2.1.8 3.4-.1 3.4-2.3 0-3.2-4-5.5-5.5-3.1zM139.2 30.2c-2.3 2.3-1.2 8 3.4 18.2 8.9 19.1 13.5 35.3 13.3 46 0 4.9-.6 3.9-4.3-8.4-3.3-10.9-7.2-17.9-11.4-20.3-3-1.8-3.4-1.8-5.6-.3-2.8 1.8-4.9 7.6-7.1 19.1-1.8 9.4-1.4 12.7 3 25 1.8 4.9 3.6 10.6 3.9 12.5.6 2.8 0 2.3-2.7-3.1-7-13.6-11.6-16.9-16.4-11.7-5.3 5.9-6.1 13.7-1.9 20.8 2.8 5 3.6 7.9.9 4-3.2-4.8-6.7-8-8.9-8-2.9 0-8.7 6.5-10.9 12.3-1.2 3.2-1.6 6.4-1.3 10.1.6 7.6 4.3 12.6 13.5 18.4 4.1 2.6 11.1 7.3 15.6 10.4 18.3 12.8 27.4 18.7 32 20.6 6 2.7 6.6 3.5-14.5-19.9-9.1-10.1-17.6-19.8-18.9-21.4-2.7-3.7 17.4 16.5 30 30l9.2 10-2.1-5.5c-1.2-3-4.3-10-6.9-15.5-4.1-8.6-7.6-14.8-18.5-33l-1.8-3 2.6 3c4.2 4.7 16.4 22.9 23.9 35.5 3.7 6.3 6.6 10.4 6.3 9-.3-1.4-1.5-7.7-2.6-14-1.2-6.3-3.6-17.6-5.5-25-1.9-7.4-3.2-13.6-3-13.8.4-.4 6 17.3 9.9 31.3 5.6 20.2 5 19.6 5.7 5 .3-7.2.4-22.2.1-33.5-.3-11.3-.2-20.3.1-20 .8.8 3.7 41.1 3.8 53.9.1 13.5 1.3 9.4 3.1-10.7.7-7.8 1.6-14.2 2.1-14.2 1 0 0 25-1.7 40.2-.6 5.8-.8 10.4-.5 10.2 1.4-.8 5.9-15.9 7.4-24.4 2-11.4 2-37.3-.1-50.4-5.2-33.3-20.4-74.2-32-86.3-4.2-4.5-8.6-5.7-11.2-3.1zM116.2 31.2c.6 1.8 2.8 2.1 2.8.4 0-.9-.7-1.6-1.6-1.6-.9 0-1.4.5-1.2 1.2zM219 32c0 .5.5 1 1 1 .6 0 1-.5 1-1 0-.6-.4-1-1-1-.5 0-1 .4-1 1zM214.5 34c.3.5.8 1 1.1 1 .2 0 .4-.5.4-1 0-.6-.5-1-1.1-1-.5 0-.7.4-.4 1zM121 36.5c0 .8.7 1.5 1.5 1.5s1.5-.4 1.5-.9-.7-1.1-1.5-1.5c-.9-.3-1.5 0-1.5.9zM219.4 37.5c-1.8 2.8-1.1 8.3 1.2 9.2 2.3.9 5.4-2.7 5.4-6.2 0-5.5-3.8-7.3-6.6-3zM211.4 39.5c-.8 2.1.3 4.7 1.9 4.3.6-.3 1.3-1.4 1.5-2.5.4-2.4-2.6-4-3.4-1.8zM116.2 43.2c.2 1.7 1.1 2.4 3.1 2.6 2.5.3 2.8 0 2.5-2-.2-1.7-1.1-2.4-3.1-2.6-2.5-.3-2.8 0-2.5 2z" class="node"/><path d="M126.3 44.6c-.9 2.4 1.8 6.8 4.4 7.2 1.7.3 2.4-.3 2.9-2.4.9-3.5-.6-5.8-4-6.2-1.7-.2-2.8.2-3.3 1.4zM206 45c0 .5.5 1 1 1 .6 0 1-.5 1-1 0-.6-.4-1-1-1-.5 0-1 .4-1 1zM212.5 48c-.3.6-.3 1.9 0 3.1.5 1.6 1 1.8 2.1.8 1.8-1.5 1.8-4.9 0-4.9-.8 0-1.8.5-2.1 1zM118.6 50.8c-.3.6-.1 1.4.5 1.7 1.5 1 2.5-.3 1.2-1.6-.7-.7-1.3-.7-1.7-.1zM207 51c0 .5.5 1 1 1 .6 0 1-.5 1-1 0-.6-.4-1-1-1-.5 0-1 .4-1 1zM221.4 50.8c-2.5 1.6-3.5 5.8-4.9 20.4-1.4 14.9-4 27.1-7.1 32.9-.8 1.6-1.6 2.9-1.8 2.9-.2 0 .3-3 1.1-6.8 2.7-12.7 1.7-24.2-2.1-24.2-1.6 0-8 6.8-12.5 13.3-5.5 8.1-6.5 12.4-5.2 23 .6 5.1 1.4 13.2 1.7 18.2.5 6.3 1 8.4 1.6 7 .6-1.4.7-1.2.2 1-.9 4.4-2.4 19.5-2.3 23.5v3.5l2.9-5.5c1.6-3 5.5-11.2 8.6-18.3 3.2-7 5.9-12.5 6.1-12.3.5.4-10.2 27.1-15.3 38.3-1.8 4-3.1 7.3-2.9 7.3.2 0 3.6-5.6 7.6-12.5 3.9-6.9 7.3-12.5 7.5-12.5 1.3 0-7.7 17.8-18.4 36-.8 1.4.7.2 3.4-2.5 13.5-14.2 26.1-41.6 32.8-71.5 5.8-26.2 7.4-55.3 3.2-59.9-2.1-2.3-2.5-2.4-4.2-1.3zM202.4 53.4c-.8 2.1.3 4.9 1.6 4.1.5-.3 1-1.5 1-2.5 0-2.5-1.8-3.6-2.6-1.6zM124.5 56c-.3.6-.3 1.9 0 3 .8 2.6 5.5 2.8 5.5.2 0-3.3-4-5.6-5.5-3.2zM208.2 58.2c-1.5 1.5-1.6 5.5-.2 6.3 1.5.9 4-1.3 4-3.5 0-2.6-2.3-4.3-3.8-2.8zM113 60.5c.7.8 1.6 1.2 2.1.9 1.3-.8.1-2.4-1.8-2.4-1.3 0-1.3.3-.3 1.5zM200 62c0 .5.5 1 1 1 .6 0 1-.5 1-1 0-.6-.4-1-1-1-.5 0-1 .4-1 1zM117.5 65c-1.9 3.1 3.1 7.1 7 5.6 1.8-.7 2-3.7.3-5.4-1.5-1.5-6.4-1.6-7.3-.2zM193 65.9c0 .6.5 1.3 1 1.6.6.3 1-.1 1-.9 0-.9-.4-1.6-1-1.6-.5 0-1 .4-1 .9zM202.7 66.7c-1 .9-.9 5.3.1 5.3 1.6 0 3-2.2 2.5-4.1-.5-2-1.5-2.4-2.6-1.2zM111.2 73.2c.3 2.5 3.4 3.6 5.1 1.9 1.4-1.4-.9-4.1-3.5-4.1-1.4 0-1.9.6-1.6 2.2zM194 73.9c0 3.5 2.8 5 4.7 2.5 1.6-2.2 0-5.4-2.7-5.4-1.5 0-2 .7-2 2.9zM187.7 75.3c-.3.8-.1 2 .4 2.8 1.1 1.9 3.4-.3 2.6-2.5-.8-2-2.3-2.1-3-.3zM118.3 76.6c-.8 2.2 1 4.9 3.3 4.9 2.2 0 3.1-3 1.4-5-1.6-2-3.9-1.9-4.7.1zM190.5 82.1c-.8 2.3.7 4.5 2.4 3.5.6-.4 1.1-1.8 1.1-3.2 0-3-2.6-3.2-3.5-.3zM110 84.9c-1.9 3.6-1.2 7.8 1.6 10 4.7 3.7 8.4 2.2 8.4-3.5 0-6.1-7.5-11-10-6.5zM183.5 85.7c.3 1 .9 3 1.2 4.5.6 3.2 1.9 3.6 2.8.9.8-2.6-1.1-7.1-3.1-7.1-1.1 0-1.4.5-.9 1.7zM103 94c0 .5.7 1 1.5 1s1.5-.5 1.5-1c0-.6-.7-1-1.5-1s-1.5.4-1.5 1zM98 100.9c0 1.5.6 2.1 2.1 2.1 1.4 0 1.9-.5 1.7-1.7-.5-2.6-3.8-2.9-3.8-.4zM105.4 100.5c-.9 2.1 2.3 6.5 4.6 6.5 2.9 0 4.2-3.2 2.4-5.8-1.7-2.5-6.2-2.9-7-.7zM94.6 107.5c.4.9 1.1 1.4 1.6 1.3 1.5-.5 1.1-2.3-.6-2.6-1.1-.2-1.4.2-1 1.3zM99.4 113.4c-.8 3.4-.2 5.7 1.9 7 3.7 2.3 7.1-2.9 4.7-7.3-1.6-3-5.8-2.8-6.6.3zM90 113.4c0 .7.7 1.9 1.5 2.6 2.1 1.7 5.1-.6 3.4-2.6-1.5-1.8-4.9-1.8-4.9 0zM81 119c0 2.8 3.4 4.4 5.1 2.4 1.1-1.4 1-1.8-.6-3-2.7-2-4.5-1.7-4.5.6zM89.7 122.8c-2.1 2.3-2.1 3.6-.2 5.2 2.1 1.8 4.7-.5 4.3-3.8-.4-3.2-2-3.8-4.1-1.4zM74 129.4c0 .9.7 1.6 1.6 1.6 1.7 0 1.4-2.2-.4-2.8-.7-.2-1.2.3-1.2 1.2zM81 129.5c0 .9.5 1.5 1.1 1.3.6-.2 1.1-.8 1.1-1.3s-.5-1.1-1.1-1.3c-.6-.2-1.1.4-1.1 1.3zM85.7 133.2c-2.1 1.1-2.2 4.4-.2 5.2 1.6.6 4.5-1.8 4.5-3.9 0-1.8-2.3-2.5-4.3-1.3zM74.4 137.5c-.7 1.8 1.3 4.5 3.3 4.5 2.3 0 2.8-3.1.8-4.6-2.4-1.8-3.4-1.8-4.1.1zM73.2 146.1c.2.7 1 1.5 1.7 1.7.8.3 1.2-.1.9-.9-.2-.7-1-1.5-1.7-1.7-.8-.3-1.2.1-.9.9zM82 146.3c0 .8.8 2.1 1.9 3.1 2.3 2.1 5.3 1.1 4.9-1.8-.2-1.6-1.1-2.2-3.5-2.4-2.3-.2-3.3.1-3.3 1.1zM74.4 154.6c.3.9.6 1.8.6 2 0 .2.9.4 2 .4 1.3 0 2-.7 2-2 0-1.5-.7-2-2.6-2-2 0-2.5.4-2 1.6zM84.7 157.6c-1.3 1.3 1.4 4.4 3.8 4.4 1.8 0 2.5-.5 2.5-1.9 0-2.5-4.5-4.2-6.3-2.5zM70.5 162c.3.5.8 1 1.1 1 .2 0 .4-.5.4-1 0-.6-.5-1-1.1-1-.5 0-.7.4-.4 1zM41.5 164.9c-.9 1.6.3 3.1 2.6 3.1 1.4 0 1.9-.6 1.7-1.7-.4-2-3.3-2.9-4.3-1.4zM50.5 165c-1.2 2 .6 5 3.1 5 3 0 3.3-3.4.5-5-2.4-1.3-2.8-1.3-3.6 0zM60 170.4c-3.5 1.2-7 6.3-7 10.2 0 3 3.9 8.4 8.5 11.6 2.2 1.6 8.3 4.4 13.5 6.3 11.5 4.1 8.9 4.4-8 1-14.4-2.9-18-3.1-22.6-.9-8.5 4.1-8.4 14.7.2 24.3 7.2 8 13.2 8.8 30.2 3.8 4.5-1.3 8.2-2.1 8.2-1.6 0 .4-3.5 2.1-7.7 3.9-14.3 5.8-18.3 8-19.9 11.2-3.2 6.1 2.3 14.4 9.4 14.1 8.5-.3 23.1-7 46.2-21.5 9.1-5.7 22.7-13.2 30.3-16.7 7.5-3.5 13.5-6.6 13.2-6.9-.7-.8-11.9 3.6-24.4 9.4-6.3 3-11.6 5.4-11.9 5.4-.9 0 4.4-3.7 11.3-7.9 8.2-4.9 6.1-4.7-9.5 1-5.7 2.1-10.6 3.6-10.8 3.4-.2-.2 4.7-3.1 11-6.5l11.3-6.1-9 .6c-4.9.3-11.2.8-14 1.1-3.3.3-4.5.2-3.5-.4 1.8-1.2 18.8-5.2 22.1-5.3 5.5-.1-2.2-1.8-14-3.1-6.6-.6-11.8-1.5-11.5-1.7.6-.6 24.4-.3 28.9.4 1.7.3-1.3-1.1-6.5-2.9-5.2-1.9-9-3.5-8.5-3.5.6-.1 6.8 1.4 14 3.3 7.1 1.9 13.1 3.3 13.3 3.2.3-.3-21.8-10-33.7-14.8-8.6-3.5-38-13.7-42.7-14.8-1.7-.4-4.5-.2-6.4.4zM33 171.5c0 .8.7 1.5 1.5 1.5s1.5-.7 1.5-1.5-.7-1.5-1.5-1.5-1.5.7-1.5 1.5zM91.1 172.4c.7.7 11.3 4.6 11.6 4.2.4-.4-9.6-4.6-11-4.6-.6 0-.8.2-.6.4zM41.7 174.7c-1.6 1.5-.6 4.3 1.8 4.9 3.4.8 5.5-.1 5.5-2.5 0-2.6-5.4-4.4-7.3-2.4zM107 179c1.9 1.1 4 1.9 4.5 1.9.6 0-.6-.8-2.5-1.9-1.9-1.1-3.9-1.9-4.5-1.9-.5 0 .6.8 2.5 1.9zM32.4 181.1c-.3.6.1 1.8.9 2.7 1.3 1.3 1.9 1.3 3.2.2 1.2-1 1.3-1.6.4-2.6-1.4-1.7-3.5-1.8-4.5-.3zM113 181.5c0 .3 3.6 2.3 8 4.5s8 3.8 8 3.5c0-.3-3.6-2.3-8-4.5s-8-3.8-8-3.5z" class="node"/><path d="M41 186.8c-3.2 2.6-2.1 5.2 2.3 5.2 4.1 0 6.6-2.4 5-4.8-1.5-2.4-4.6-2.6-7.3-.4zM26.5 203.4c-3.3 5 .9 7.6 5.6 3.7 2-1.6 2.2-2.3 1.3-3.8-1.7-2.8-5-2.8-6.9.1zM18 204c0 .5.7 1 1.5 1s1.5-.5 1.5-1c0-.6-.7-1-1.5-1s-1.5.4-1.5 1zM9.2 212.7c.5 2.5 2.8 2.8 2.8.4 0-1.2-.6-2.1-1.6-2.1-.9 0-1.4.7-1.2 1.7zM18 212.5c-2.7 3.2 1.9 8 4.9 5.1 1.2-1.2 1.2-2 .3-4.1-1.3-2.8-3.3-3.2-5.2-1zM29 218c-1.5 2.7-.5 4 3.1 4 3.3 0 4.8-2.2 2.9-4.5-1.8-2.1-4.7-1.9-6 .5zM12 223.5c0 .8.7 1.5 1.5 1.5s1.5-.7 1.5-1.5-.7-1.5-1.5-1.5-1.5.7-1.5 1.5zM23 227.4c-.6.8-1 2.5-.8 3.8.4 3.3 5.2 3.3 5.6 0 .3-2.2-1.3-5.2-2.8-5.2-.4 0-1.3.7-2 1.4zM37.2 229.2c-3 3-.1 6.8 5.2 6.8 2.5 0 3-.8 2.6-4-.4-3.3-5.4-5.2-7.8-2.8zM32.4 239.1c-1 1.7 1.2 3.2 3.5 2.4 2.9-.9 2.7-3.5-.3-3.5-1.4 0-2.8.5-3.2 1.1zM44.2 242.2c.7 1.9 3.8 2.2 3.8.4 0-1-.9-1.6-2.1-1.6-1.2 0-1.9.5-1.7 1.2zM42 249c0 .5.5 1 1 1 .6 0 1-.5 1-1 0-.6-.4-1-1-1-.5 0-1 .4-1 1zM49 253.8c0 1.6.3 3.2.6 3.5 1.3 1.3 4.4-1.4 4.4-3.8 0-2-.5-2.5-2.5-2.5-2.1 0-2.5.5-2.5 2.8zM40 257.9c0 2.4 2.5 4.5 4.5 3.7 2-.7 1.9-4.2-.1-5-2.8-1.1-4.4-.6-4.4 1.3zM59.5 258.9c-.9 1.6.3 3.1 2.6 3.1 1.4 0 1.9-.6 1.7-1.7-.4-2-3.3-2.9-4.3-1.4zM49.4 263.1c-.7 1.2 1.2 2.9 3.3 2.9 1.9 0 2.7-2.1 1.2-3.1-1.9-1.2-3.6-1.1-4.5.2z" class="node"/></g></svg>